<?xml version="1.0" standalone="no"?>
<!DOCTYPE svg PUBLIC "-//W3C//DTD SVG 20010904//EN"
 "http://www.w3.org/TR/2001/REC-SVG-20010904/DTD/svg10.dtd">
<svg version="1.0" xmlns="http://www.w3.org/2000/svg"
 width="1280.000000pt" height="1280.000000pt" viewBox="0 0 1280.000000 1280.000000"
 preserveAspectRatio="xMidYMid meet">
<metadata>
Created by potrace 1.16, written by Peter Selinger 2001-2019
</metadata>
<g transform="translate(0.000000,1280.000000) scale(0.100000,-0.100000)"
fill="#000000" stroke="none">
<path d="M6150 12400 c-1488 -60 -2882 -661 -3943 -1700 -483 -472 -847 -962
-1146 -1542 -361 -699 -573 -1433 -647 -2248 -36 -384 -20 -943 37 -1345 214
-1510 974 -2857 2159 -3826 906 -741 1983 -1185 3190 -1315 201 -22 761 -30
987 -15 866 59 1687 293 2444 697 1678 896 2836 2546 3108 4429 71 490 80
1042 25 1540 -181 1636 -1043 3140 -2369 4135 -1101 825 -2458 1246 -3845
1190z m750 -585 c430 -43 828 -127 1215 -256 1758 -590 3111 -2052 3554 -3839
115 -464 161 -840 161 -1314 0 -291 -11 -457 -46 -721 -199 -1507 -1029 -2865
-2293 -3748 -703 -492 -1541 -816 -2394 -926 -476 -62 -1013 -58 -1477 10
-810 117 -1592 423 -2277 887 -474 323 -921 747 -1267 1201 -621 817 -986
1744 -1091 2771 -23 221 -30 608 -16 835 75 1188 504 2263 1275 3190 130 156
497 523 655 654 933 777 2030 1209 3236 1275 141 8 614 -4 765 -19z"/>
<path d="M6259 9257 c-25 -7 -68 -30 -95 -49 -27 -20 -635 -623 -1350 -1340
-1442 -1443 -1339 -1331 -1339 -1468 1 -129 -87 -33 1378 -1497 1483 -1481
1359 -1369 1499 -1361 86 5 132 24 187 80 73 72 97 179 65 289 -15 53 -42 80
-1092 1131 l-1077 1078 2840 2 2840 3 47 27 c165 98 196 319 63 450 -45 44
-86 65 -156 78 -33 6 -1045 10 -2838 10 l-2786 0 1067 1068 c586 587 1074
1083 1085 1102 25 49 26 201 0 247 -67 124 -208 186 -338 150z"/>
</g>
</svg>
